<svg class="frills" xmlns="http://www.w3.org/2000/svg" viewBox="0 0 76 25"
    aria-hidden="true" preserveAspectRatio="xMinYMin">
    <title>Frills</title>
    <path stroke="#009DFF"
        d="M21.6 10.6c.926 0 1.582.363 1.71.998l.16.807.643-.515a3.5 3.5 0 0 1 1.488-.7l.018-.005.019-.004c1.314-.376 2.586-.366 3.753.173l.012.005c.61.262 1.23.771 1.61 1.381.377.603.494 1.25.23 1.857-.316.71-.931 1.103-1.743 1.103-.377 0-.727-.055-1.082-.124-.34-.065-.72-.152-1.084-.186a2.708 2.708 0 0 0-1.195.129c-.365.13-.713.354-1.057.689l-.147.15c-.72.727-.931 1.696-.996 2.593-.034.455-.03.915-.025 1.34.005.433.01.825-.013 1.176l-.002.016v.017c0 .638-.21 1.157-.557 1.514-.345.355-.861.586-1.542.586-.494 0-.872-.14-1.183-.414-.32-.282-.606-.739-.84-1.436a20.5 20.5 0 0 1-.385-8.758c.14-.752.39-1.355.747-1.763.341-.39.803-.63 1.46-.63ZM35.9 12a1.68 1.68 0 0 1 1.352.644c.336.407.56.983.651 1.615.295 2.455.295 4.907.002 7.26-.144.713-.345 1.223-.65 1.556-.285.312-.713.525-1.455.525-.658 0-1.085-.239-1.371-.599-.302-.38-.485-.943-.53-1.634l-.002-.014v-.012l-.097-.923a29.811 29.811 0 0 1 .097-6.355l-.002-.002c.092-.627.312-1.145.636-1.498.315-.344.754-.563 1.368-.563Zm8.3-7.8c.895 0 1.569.707 2.064 1.71.474.959.688 2.01.738 2.346.296 3.76.197 7.623-.2 11.392v.012l-.001.012c-.048.853-.262 1.872-.7 2.66-.433.776-1.042 1.267-1.9 1.268-.933 0-1.537-.468-1.957-1.189-.38-.653-.593-1.495-.705-2.314l-.042-.349a57.502 57.502 0 0 1-.067-10.781l.067-.717c.099-.986.292-2.028.717-2.812.408-.751 1.009-1.238 1.986-1.238Zm8.4 0c.977 0 1.578.487 1.986 1.238.372.686.566 1.57.675 2.44l.042.372c.297 3.77.296 7.636-.1 11.398l-.002.013v.013c-.048.895-.283 1.91-.743 2.683-.452.761-1.086 1.243-1.958 1.243-.932 0-1.535-.468-1.955-1.189-.434-.746-.65-1.737-.748-2.661a57.498 57.498 0 0 1-.067-10.783l.068-.717c.097-.967.335-2.01.796-2.797.449-.766 1.08-1.253 2.006-1.253Zm7.6 7.258c1.86-.74 4.033-.656 6.057-.08.59.183 1.245.525 1.744.98.5.456.799.982.799 1.542 0 .571-.328.983-.81 1.19a1.797 1.797 0 0 1-1.628-.115l-.02-.012-.019-.01-.198-.09a3.131 3.131 0 0 0-.788-.221 1.458 1.458 0 0 0-.63.043.903.903 0 0 0-.571.529l-.018.043-.009.045c-.074.373-.004.721.204.998.19.253.461.4.73.474 1.037.379 1.884.849 2.541 1.315a2.5 2.5 0 0 1 .57.762l.058.128a2.5 2.5 0 0 1 .188 1.094v.027c0 1.02-.407 1.865-1.466 2.576-1.091.632-2.487.924-4.434.924-.869 0-2.203-.122-3.3-.53-1.116-.416-1.8-1.044-1.8-1.97 0-.242.04-.42.107-.572.065-.145.165-.288.321-.448A2.21 2.21 0 0 1 59 19.7c.355 0 .63.136.966.34.306.186.74.49 1.272.556l.03.004h.032c.497 0 .92-.296 1.071-.721a.945.945 0 0 0-.022-.695 1.086 1.086 0 0 0-.526-.532l-.013-.006-.013-.005-2.07-.889c-1.397-.801-2.408-1.659-2.328-3.022v-.03c0-.683.321-1.317.853-1.883.53-.563 1.241-1.028 1.947-1.359ZM35.9 3.5a2.9 2.9 0 0 1 2.9 2.9c0 1.642-1.394 3.1-3 3.1-1.652 0-2.8-1.498-2.8-3.1a2.9 2.9 0 0 1 2.9-2.9ZM1.2 14.285v-.015a9.5 9.5 0 0 1 .38-3.291l.147-.454A9.502 9.502 0 0 1 3.36 7.643l.313-.36A9.5 9.5 0 0 1 10.414 4.2l.021-.002c1.328-.095 2.934.147 4.188.785C15.865 5.616 16.7 6.597 16.7 8c0 .741-.179 1.259-.446 1.632-.269.375-.658.647-1.15.84-1.01.398-2.337.428-3.604.428-.905 0-2.015.184-2.919.657-.916.479-1.681 1.296-1.682 2.543v.5h4.2c.756 0 1.572 0 2.358.108.787.107 1.5.316 2.059.703l.012.009.015.009c.284.17.457.454.457 1.17 0 .436-.088.767-.23 1.008a1.184 1.184 0 0 1-.538.48l-.108.045-.01.004c-.909.363-2.03.464-3.215.464H7.2v2.3c0 1.001-.194 1.672-.51 2.083-.296.387-.757.616-1.49.617-1.155 0-2.11-.637-2.853-2.123l-.006-.012-.135-.272C1.553 19.777 1.2 17.474 1.2 14.3v-.015Z"
        class="frills-tx" />
    <g>
        <path fill="#F37" fill-rule="evenodd"
            d="M63.083 2.657c-.56 0-1.035.2-1.369.567-.33.362-.495.858-.495 1.407 0 .954.485 1.714 1.102 2.305.614.588 1.387 1.036 2.027 1.37a.329.329 0 0 0 .303.001c.64-.33 1.412-.782 2.027-1.373.617-.593 1.103-1.356 1.103-2.303 0-.551-.166-1.047-.497-1.41-.334-.364-.81-.565-1.367-.565-.47 0-.86.175-1.156.504a1.97 1.97 0 0 0-.261.373 1.97 1.97 0 0 0-.261-.373 1.497 1.497 0 0 0-1.157-.503Z"
            clip-rule="evenodd" class="frills-x" />
        <path fill="#F69" fill-rule="evenodd"
            d="M69.19.375c-.32 0-.591.115-.782.324-.189.207-.283.49-.283.805 0 .545.278.979.63 1.317.351.336.793.591 1.158.783a.188.188 0 0 0 .173 0c.366-.189.807-.447 1.159-.785s.63-.774.63-1.315c0-.316-.095-.599-.284-.806a1.03 1.03 0 0 0-.781-.323c-.269 0-.492.1-.66.288a1.122 1.122 0 0 0-.15.213 1.122 1.122 0 0 0-.15-.213.855.855 0 0 0-.66-.288Z"
            clip-rule="evenodd" class="frills-x" />
        <path fill="#F05" fill-rule="evenodd"
            d="M70.272 6c-.682 0-1.261.248-1.668.698C68.202 7.144 68 7.755 68 8.43c0 1.174.592 2.11 1.344 2.837.749.724 1.69 1.275 2.47 1.687a.397.397 0 0 0 .37 0c.78-.407 1.722-.962 2.47-1.69C75.408 10.534 76 9.596 76 8.43c0-.678-.203-1.288-.606-1.734-.407-.45-.987-.696-1.666-.696-.574 0-1.048.215-1.41.62-.123.14-.23.294-.318.46a2.422 2.422 0 0 0-.318-.46 1.817 1.817 0 0 0-1.41-.62Z"
            clip-rule="evenodd" class="frills-x" />
    </g>
</svg>