<?xml version="1.0" encoding="UTF-8"?>
<svg id="Layer_1" xmlns="http://www.w3.org/2000/svg" version="1.1" viewBox="0 0 1080 1080">
  <!-- Generator: Adobe Illustrator 29.5.1, SVG Export Plug-In . SVG Version: 2.1.0 Build 141)  -->
  <defs>
    <style>
      .st0 {
        fill: #f8d8e3;
      }

      .st1 {
        display: none;
      }
    </style>
  </defs>
  <path d="M965.1,572.7c-11.4-12.2-37.2-23.8-23.5-43.3,10.9-15.6,51.8-10.3,59.1-39.1,10.2-40.1-40.4-60.8-78.9-57.3-79.8,7.2-110,57.1-68.2,118.8.5.7,2.1,2.6,4.2,4.8,6.4,6.9,13.1,13.5,20.1,19.8l3.1,2.8c12.4,11.3,33.3,25.7,21.7,41.6-14.8,20.3-52.5,12.4-60.1,41.2s21.1,60,69.7,57.7c79.8-7.2,121.9-68.8,73.9-125.7-.2-.2-.3-.4-.4-.5-5.3-6.2-10.9-12.1-17-17.5l-3.6-3.2h0Z"/>
  <path d="M700.8,543.3c11.2,67.4,25.3,125.9,117.4,100.2,35.2-9.8,60.2-31.7,41.1-65.5-13.7-24.2-44.5.8-63.3-10.4s-14.2-21.9-16-32c-5-28.9,3.6-110.1-50.5-97.6-42.9,9.9-33.5,76.4-28.7,105.3Z"/>
  <path d="M462.3,550.2c-3.7,33.9-8.4,78.4,6.9,108.4,12.7,24.9,53.7,29.4,68.4,4.2,17.3-29.6,19.2-82.2,19-117.4-.2-28.1-4.8-82.2-47.5-78.7-34.1,2.7-43.2,50.7-46.8,83.5Z"/>
  <path d="M521.9,359.5c-27.3,0-49.4,22.1-49.4,49.4s22.1,49.4,49.4,49.4,49.4-22.1,49.4-49.4-22.1-49.4-49.4-49.4Z"/>
  <path d="M509.1,466.7c-34.1,2.7-43.2,50.7-46.8,83.5-3.7,33.9-8.4,78.4,6.9,108.4,12.7,24.9,53.7,29.4,68.4,4.2,17.3-29.6,19.2-82.2,19-117.4-.2-28.1-4.8-82.2-47.5-78.7h0Z"/>
  <path d="M521.9,359.5c-27.3,0-49.4,22.1-49.4,49.4s22.1,49.4,49.4,49.4,49.4-22.1,49.4-49.4-22.1-49.4-49.4-49.4Z"/>
  <path d="M140.8,434.9c-62.7,8.5-68.7,60.3-69.3,109.4h0c-.3,26.2-.8,37.8,1.9,74.5s5.8,107.4,52.7,101.3c34.8-4.5,17.6-53.8,41.2-87.6,8.8-12.5,22.2-12.7,34-15.7,24.7-6.3,27.8-22,27.1-35.6-2-36.2-58.3-22.8-66.6-35.5-3.6-5.6-.6-13.3,5-16.2,20.1-10.4,60.3-6.2,68.4-36.4,12.4-46.3-56.6-63.3-94.3-58.2h-.1Z"/>
  <path d="M509.1,466.7c-34.1,2.7-43.2,50.7-46.8,83.5-3.7,33.9-8.4,78.4,6.9,108.4,12.7,24.9,53.7,29.4,68.4,4.2,17.3-29.6,19.2-82.2,19-117.4-.2-28.1-4.8-82.2-47.5-78.7h0Z"/>
  <path d="M521.9,359.5c-27.3,0-49.4,22.1-49.4,49.4s22.1,49.4,49.4,49.4,49.4-22.1,49.4-49.4-22.1-49.4-49.4-49.4Z"/>
  <path d="M859.3,578c-13.7-24.2-44.5.8-63.3-10.4s-14.2-21.9-16-32c-5-28.9,3.6-110.1-50.5-97.6-42.9,9.9-33.5,76.4-28.7,105.3,11.2,67.4,25.3,125.9,117.4,100.2,35.2-9.8,60.2-31.7,41.1-65.5Z"/>
  <path d="M859.3,578c-13.7-24.2-44.5.8-63.3-10.4s-14.2-21.9-16-32c-5-28.9,3.6-110.1-50.5-97.6-42.9,9.9-33.5,76.4-28.7,105.3,11.2,67.4,25.3,125.9,117.4,100.2,35.2-9.8,60.2-31.7,41.1-65.5Z"/>
  <path d="M682.8,622.9c-27.6-10.7-19-45.3-16.1-66.1,4.9-36.2,32.2-122.7-28.9-124.7-52.5-1.7-61.1,80.7-65.2,127.5h0c-7.7,87-13.9,158.5,101.8,158.8,52.7.2,60.4-19.6,58.9-55.5-1.1-27.1-29.3-31.8-50.4-40h0Z"/>
  <g id="PINK" class="st1">
    <path class="st0" d="M328.1,432.9c57.6-4,123.5,23.3,116.3,92.6-3.2,31-31.7,44.8-17.2,76.1,12.2,26.4,49,64.4,32.2,95.8-10.7,19.9-38.5,24.8-57.9,16.7-34.7-14.6-34.7-67.6-49.5-96.3-7-13.6-24.8-20.2-28-1.7-5.5,32.7,26.2,96.1-26.5,101.1-24.4,2.3-42-4.5-51.3-28.3-14.6-37.6-8.9-148.7,2.4-188.7,11.9-42.2,35.5-64.2,79.4-67.3h0ZM339,506.9c-18.1,1.1-22.7,37.6-6.1,43.7,31.5,11.6,39.2-45.8,6.1-43.7h0ZM965.1,572.7c-11.4-12.2-37.2-23.8-23.5-43.3,10.9-15.6,51.8-10.3,59.1-39.1,10.2-40.1-40.4-60.8-78.9-57.3-79.8,7.2-110,57.1-68.2,118.8.5.7,2.1,2.6,4.2,4.8,6.4,6.9,13.1,13.5,20.1,19.8l3.1,2.8c12.4,11.3,33.3,25.7,21.7,41.6s-52.5,12.4-60.1,41.2c-10.2,38.4,41.4,58.7,79.9,55.2,79.8-7.2,111.7-66.3,63.7-123.2-.2-.2-.3-.4-.4-.5-5.3-6.2-10.9-12.1-17-17.5l-3.6-3.2h0ZM71.4,544.3c-.3,26.2-.8,37.8,1.9,74.5s5.8,107.4,52.7,101.3c34.8-4.5,16.2-61.4,43.8-92,8.9-9.8,19.6-8.3,31.4-11.3,24.7-6.3,27.8-22,27.1-35.6-2-36.2-58.3-22.8-66.6-35.5-3.6-5.6-.6-13.3,5-16.2,20.1-10.4,60.3-6.2,68.4-36.4,12.4-46.3-56.6-63.3-94.3-58.2-62.7,8.5-68.7,60.3-69.3,109.4h0ZM572.5,559.6c-7.7,87-13.9,159.3,101.8,158.8,43.1-.2,60.4-19.6,58.9-55.5-1.1-27.1-29.3-31.8-50.4-40-27.6-10.7-19-45.3-16.1-66.1,4.9-36.2,32.2-122.7-28.9-124.7-52.5-1.7-61.1,80.7-65.2,127.5h0ZM700.8,543.3c11.2,67.4,25.3,125.9,117.4,100.2,35.2-9.8,60.2-31.7,41.1-65.5-13.7-24.2-44.5.8-63.3-10.4-9.7-5.8-14.2-21.9-16-32-5-28.9,3.6-110.1-50.5-97.6-42.9,9.9-33.5,76.4-28.7,105.3ZM462.3,550.2c-3.7,33.9-8.4,78.4,6.9,108.4,12.7,24.9,53.7,29.4,68.4,4.2,17.3-29.6,19.2-82.2,19-117.4-.2-28.1-4.8-82.2-47.5-78.7s-43.2,50.7-46.8,83.5ZM521.9,359.5c-27.3,0-49.4,22.1-49.4,49.4s22.1,49.4,49.4,49.4,49.4-22.1,49.4-49.4-22.1-49.4-49.4-49.4Z"/>
  </g>
  <g id="BLACK" class="st1">
    <path d="M328.1,432.9c57.6-4,123.5,23.3,116.3,92.6-3.2,31-31.7,44.8-17.2,76.1,12.2,26.4,49,64.4,32.2,95.8s-38.5,24.8-57.9,16.7c-34.7-14.6-34.7-67.6-49.5-96.3-7-13.6-24.8-20.2-28-1.7-5.5,32.7,26.2,96.1-26.5,101.1-24.4,2.3-42-4.5-51.3-28.3-14.6-37.6-8.9-148.7,2.4-188.7,11.9-42.2,35.5-64.2,79.4-67.3h0ZM339,506.9c-18.1,1.1-22.7,37.6-6.1,43.7,31.5,11.6,39.2-45.8,6.1-43.7h0ZM965.1,572.7c-11.4-12.2-37.2-23.8-23.5-43.3,10.9-15.6,51.8-10.3,59.1-39.1,10.2-40.1-40.4-60.8-78.9-57.3-79.8,7.2-110,57.1-68.2,118.8.5.7,2.1,2.6,4.2,4.8,6.4,6.9,13.1,13.5,20.1,19.8l3.1,2.8c12.4,11.3,33.3,25.7,21.7,41.6-14.8,20.3-52.5,12.4-60.1,41.2-10.2,38.4,41.4,58.7,79.9,55.2,79.8-7.2,111.7-66.3,63.7-123.2-.2-.2-.3-.4-.4-.5-5.3-6.2-10.9-12.1-17-17.5l-3.6-3.2h0ZM71.4,544.3c-.3,26.2-.8,37.8,1.9,74.5s5.8,107.4,52.7,101.3c34.8-4.5,16.2-61.4,43.8-92s19.6-8.3,31.4-11.3c24.7-6.3,27.8-22,27.1-35.6-2-36.2-58.3-22.8-66.6-35.5-3.6-5.6-.6-13.3,5-16.2,20.1-10.4,60.3-6.2,68.4-36.4,12.4-46.3-56.6-63.3-94.3-58.2-62.7,8.5-68.7,60.3-69.3,109.4h0ZM572.5,559.6c-7.7,87-13.9,159.3,101.8,158.8s60.4-19.6,58.9-55.5c-1.1-27.1-29.3-31.8-50.4-40s-19-45.3-16.1-66.1c4.9-36.2,32.2-122.7-28.9-124.7-52.5-1.7-61.1,80.7-65.2,127.5h0ZM700.8,543.3c11.2,67.4,25.3,125.9,117.4,100.2,35.2-9.8,60.2-31.7,41.1-65.5-13.7-24.2-44.5.8-63.3-10.4-9.7-5.8-14.2-21.9-16-32-5-28.9,3.6-110.1-50.5-97.6-42.9,9.9-33.5,76.4-28.7,105.3ZM462.3,550.2c-3.7,33.9-8.4,78.4,6.9,108.4,12.7,24.9,53.7,29.4,68.4,4.2s19.2-82.2,19-117.4c-.2-28.1-4.8-82.2-47.5-78.7-34.1,2.7-43.2,50.7-46.8,83.5ZM521.9,359.5c-27.3,0-49.4,22.1-49.4,49.4s22.1,49.4,49.4,49.4,49.4-22.1,49.4-49.4-22.1-49.4-49.4-49.4Z"/>
  </g>
  <path d="M427.2,601.6c-14.5-31.3,14-45.1,17.2-76.1,7.2-69.3-58.7-96.6-116.3-92.6h0c-43.9,3.1-67.5,25.1-79.4,67.3-11.3,40-17,151.1-2.4,188.7,9.3,23.8,26.9,30.6,51.3,28.3,52.7-5,21-68.4,26.5-101.1,3.2-18.5,21-11.9,28,1.7,14.8,28.7,14.8,81.7,49.5,96.3,19.4,8.1,45.1,7.9,57.9-16.7,16.4-31.6-20-69.4-32.2-95.8h-.1ZM332.9,550.6c-16.6-6.1-12-42.6,6.1-43.7,33.1-2.1,25.4,55.3-6.1,43.7Z"/>
</svg>