<svg width="195" height="83" viewBox="0 0 195 83" fill="none" xmlns="http://www.w3.org/2000/svg">
<path d="M174.882 5.47368C175.843 5.69527 176.724 6.18291 177.422 6.88091C178.12 7.5789 178.607 8.45913 178.829 9.42105C179.07 8.42448 179.597 7.52002 180.345 6.81876C181.093 6.11751 182.029 5.65001 183.039 5.47368V4.94737C182.078 4.72578 181.197 4.23814 180.499 3.54015C179.801 2.84215 179.314 1.96193 179.092 1H178.829C178.607 1.96193 178.12 2.84215 177.422 3.54015C176.724 4.23814 175.843 4.72578 174.882 4.94737C174.618 4.94737 174.618 5.21053 174.882 5.47368ZM161.197 13.6316C162.835 14.0768 164.328 14.9424 165.529 16.1425C166.729 17.3427 167.594 18.8358 168.039 20.4737H168.829C169.274 18.8358 170.14 17.3427 171.34 16.1425C172.54 14.9424 174.033 14.0768 175.671 13.6316C175.934 13.6316 175.934 13.1053 175.671 13.1053C173.988 12.6635 172.459 11.7667 171.252 10.5134C170.045 9.26 169.207 7.69845 168.829 6H168.039C167.635 7.68632 166.788 9.23404 165.585 10.4832C164.382 11.7323 162.867 12.6375 161.197 13.1053C160.934 13.1053 160.934 13.3684 161.197 13.6316ZM172.776 24.4211C175.32 25.0577 177.643 26.3732 179.497 28.2272C181.35 30.0812 182.666 32.4039 183.303 34.9474H184.092C184.729 32.4039 186.044 30.0812 187.898 28.2272C189.752 26.3732 192.075 25.0577 194.618 24.4211V23.6316C192.075 22.995 189.752 21.6794 187.898 19.8255C186.044 17.9715 184.729 15.6487 184.092 13.1053C184.092 12.8421 183.303 12.8421 183.039 13.1053C182.425 15.6166 181.149 17.9174 179.344 19.7685C177.539 21.6197 175.271 22.9536 172.776 23.6316C172.25 23.6316 172.25 24.4211 172.776 24.4211Z" fill="black"/>
<path d="M173.162 53.994C171.004 51.6577 166.121 49.4363 168.714 45.7019C170.777 42.7145 178.519 43.7295 179.901 38.2142C181.832 30.5349 172.254 26.5708 164.966 27.241C149.861 28.6198 144.144 38.1759 152.057 49.9916C152.151 50.1257 152.454 50.4895 152.852 50.9108C154.063 52.2322 155.331 53.4961 156.656 54.7026L157.243 55.2388C159.59 57.4028 163.546 60.1604 161.351 63.2053C158.549 67.0928 151.413 65.58 149.974 71.0953C148.536 76.6106 153.968 82.5855 163.168 82.145C178.273 80.7662 186.242 68.9696 177.156 58.073C177.118 58.0347 177.1 57.9964 177.081 57.9773C176.077 56.79 175.017 55.6601 173.863 54.626L173.181 54.0132L173.162 53.994Z" fill="black"/>
<path d="M13.6126 27.3354C2.24109 28.9675 1.15291 38.9136 1.0441 48.3413C0.989687 53.372 0.899006 55.5993 1.38869 62.6461C1.87837 69.6929 2.44059 83.2681 10.9465 82.0968C17.258 81.2328 14.1385 71.7666 18.4187 65.2767C20.0147 62.8766 22.4449 62.8381 24.585 62.2621C29.0647 61.0524 29.6269 58.0379 29.5 55.4265C29.1372 48.4758 18.9265 51.0487 17.4212 48.6102C16.7683 47.5349 17.3124 46.0564 18.328 45.4996C21.9734 43.5027 29.2642 44.3091 30.7332 38.5104C32.9821 29.6203 20.4681 26.3561 13.6307 27.3354H13.6126Z" fill="black"/>
<path d="M85.5297 32.5975C78.9773 33.1163 77.2288 42.3396 76.537 48.6422C75.8261 55.1561 74.923 63.7068 77.8629 69.4714C80.3032 74.2559 88.1814 75.1206 91.006 70.2784C94.3302 64.5907 94.6953 54.4836 94.6569 47.7198C94.6185 42.3204 93.7346 31.925 85.5297 32.5975Z" fill="black"/>
<path d="M87.9864 12C82.7407 12 78.4941 16.2465 78.4941 21.4923C78.4941 26.738 82.7407 30.9845 87.9864 30.9845C93.2322 30.9845 97.4787 26.738 97.4787 21.4923C97.4787 16.2465 93.2322 12 87.9864 12Z" fill="black"/>
<path d="M152.234 55.3638C149.606 50.5347 143.699 55.5234 140.093 53.2885C136.487 51.0535 137.369 48.9183 137.024 46.9029C136.065 41.1359 137.714 24.9326 127.338 27.4269C119.109 29.4025 120.912 42.6725 121.833 48.4394C123.981 61.889 126.686 73.5626 144.351 68.4342C151.102 66.4786 155.897 62.1085 152.234 55.3638Z" fill="black"/>
<path d="M118.489 63.8233C113.036 61.768 114.735 55.1217 115.308 51.1263C116.276 44.1727 121.67 27.5571 109.598 27.1729C99.2246 26.8464 97.5254 42.6744 96.7153 51.6641C95.1939 68.3758 93.9689 82.1101 116.829 82.1677C127.242 82.2061 128.763 78.4028 128.467 71.5068C128.25 66.3012 122.678 65.3984 118.509 63.8233H118.489Z" fill="black"/>
<path d="M70.8381 59.6437C67.7921 53.6318 73.7791 50.9812 74.4513 45.027C75.9638 31.7164 62.1203 26.4728 50.0203 27.2411C40.7983 27.8365 35.8407 32.0621 33.3409 40.1675C30.9671 47.8504 29.7697 69.1897 32.8367 76.4116C34.7904 80.9829 38.4876 82.289 43.6132 81.8472C54.6839 80.8869 48.0247 68.7095 49.1801 62.4287C49.8523 58.8754 53.5915 60.1431 55.062 62.7553C58.171 68.2677 58.171 78.4476 65.4604 81.2518C69.5357 82.8076 74.9345 82.7692 77.6234 78.0442C81.0685 71.9747 73.422 64.7144 70.8591 59.6437H70.8381ZM51.0287 49.848C47.5415 48.6763 48.5078 41.6657 52.3101 41.4544C59.2633 41.0511 57.6458 52.076 51.0287 49.848Z" fill="black"/>
</svg>
